<svg width="20" height="20" viewBox="0 0 20 20" fill="none" xmlns="http://www.w3.org/2000/svg">
<path d="M13.3334 3.3335V6.66683H16.6667V3.3335H13.3334ZM15.8334 5.8335H14.1667V4.16683H15.8334V5.8335ZM13.3334 8.3335V11.6668H16.6667V8.3335H13.3334ZM15.8334 10.8335H14.1667V9.16683H15.8334V10.8335ZM8.33337 3.3335V6.66683H11.6667V3.3335H8.33337ZM10.8334 5.8335H9.16671V4.16683H10.8334V5.8335ZM8.33337 8.3335V11.6668H11.6667V8.3335H8.33337ZM10.8334 10.8335H9.16671V9.16683H10.8334V10.8335ZM13.3334 13.3335V16.6668H16.6667V13.3335H13.3334ZM15.8334 15.8335H14.1667V14.1668H15.8334V15.8335ZM8.33337 13.3335V16.6668H11.6667V13.3335H8.33337ZM10.8334 15.8335H9.16671V14.1668H10.8334V15.8335ZM3.33337 3.3335V6.66683H6.66671V3.3335H3.33337ZM5.83337 5.8335H4.16671V4.16683H5.83337V5.8335ZM3.33337 8.3335V11.6668H6.66671V8.3335H3.33337ZM5.83337 10.8335H4.16671V9.16683H5.83337V10.8335ZM3.33337 13.3335V16.6668H6.66671V13.3335H3.33337ZM5.83337 15.8335H4.16671V14.1668H5.83337V15.8335Z" fill="white"/>
</svg>
