<svg width="24" height="24" viewBox="0 0 24 24" fill="none" xmlns="http://www.w3.org/2000/svg">
<path fill-rule="evenodd" clip-rule="evenodd" d="M2 9.89478C3.37032 9.89478 4.72721 10.1562 5.99322 10.664C7.25922 11.1718 8.40955 11.9162 9.37851 12.8545C10.3475 13.7929 11.1161 14.9069 11.6405 16.1329C12.1649 17.3589 12.4348 18.673 12.4348 20H10.6957C10.6957 18.8942 10.4707 17.7991 10.0337 16.7774C9.59674 15.7558 8.95622 14.8274 8.14876 14.0455C7.34129 13.2635 6.38269 12.6432 5.32768 12.22C4.27268 11.7968 3.14193 11.579 2 11.579V9.89478Z" fill="black"/>
<path fill-rule="evenodd" clip-rule="evenodd" d="M2 13.2631C2.91354 13.2631 3.81814 13.4373 4.66215 13.7759C5.50615 14.1144 6.27303 14.6107 6.919 15.2362C7.56498 15.8618 8.07739 16.6045 8.42699 17.4218C8.77659 18.2392 8.95652 19.1152 8.95652 19.9999H7.21739C7.21739 19.3364 7.08244 18.6794 6.82024 18.0663C6.55804 17.4533 6.17373 16.8963 5.68925 16.4272C5.20477 15.958 4.62961 15.5858 3.99661 15.3319C3.36361 15.078 2.68516 14.9473 2 14.9473V13.2631Z" fill="black"/>
<path fill-rule="evenodd" clip-rule="evenodd" d="M2 20L2 16.6316C2.45677 16.6316 2.90907 16.7187 3.33107 16.888C3.69337 17.0333 4.02724 17.2367 4.31884 17.4893C4.3669 17.531 4.4138 17.5739 4.4595 17.6182C4.5052 17.6624 4.54956 17.7078 4.59254 17.7544C4.85336 18.0368 5.06343 18.3601 5.21349 18.711C5.38829 19.1196 5.47826 19.5577 5.47826 20L2 20Z" fill="black"/>
<path fill-rule="evenodd" clip-rule="evenodd" d="M2 6.25641C2 5.01023 3.04784 4 4.34043 4H19.6596C20.9522 4 22 5.01023 22 6.25641V17.7436C22 18.9898 20.9522 20 19.6596 20H14.5532V18.7692H19.6596C20.2471 18.7692 20.7234 18.31 20.7234 17.7436V6.25641C20.7234 5.68996 20.2471 5.23077 19.6596 5.23077H4.34043C3.75289 5.23077 3.2766 5.68996 3.2766 6.25641V7.89744H2V6.25641Z" fill="black"/>
</svg>
