<svg width="24" height="29" viewBox="0 0 24 29" fill="none" xmlns="http://www.w3.org/2000/svg">
<g filter="url(#filter0_d_201_711)">
<path d="M12 3C10.34 3 9 4.37 9 6.07V11.93C9 13.63 10.34 15 12 15C13.66 15 15 13.63 15 11.93V6.07C15 4.37 13.66 3 12 3ZM18.5 12H17.5C17.5 15.03 15.03 17.5 12 17.5C8.97 17.5 6.5 15.03 6.5 12H5.5C5.5 15.24 7.89 17.93 11 18.41V21H13V18.41C16.11 17.93 18.5 15.24 18.5 12Z" fill="black"/>
</g>
<defs>
<filter id="filter0_d_201_711" x="-4" y="0" width="32" height="32" filterUnits="userSpaceOnUse" color-interpolation-filters="sRGB">
<feFlood flood-opacity="0" result="BackgroundImageFix"/>
<feColorMatrix in="SourceAlpha" type="matrix" values="0 0 0 0 0 0 0 0 0 0 0 0 0 0 0 0 0 0 127 0" result="hardAlpha"/>
<feOffset dy="4"/>
<feGaussianBlur stdDeviation="2"/>
<feComposite in2="hardAlpha" operator="out"/>
<feColorMatrix type="matrix" values="0 0 0 0 0 0 0 0 0 0 0 0 0 0 0 0 0 0 0.25 0"/>
<feBlend mode="normal" in2="BackgroundImageFix" result="effect1_dropShadow_201_711"/>
<feBlend mode="normal" in="SourceGraphic" in2="effect1_dropShadow_201_711" result="shape"/>
</filter>
</defs>
</svg>
