<svg width="20" height="20" viewBox="0 0 20 20" fill="none" xmlns="http://www.w3.org/2000/svg">
<path d="M8.33337 16.6666H11.6667C11.6667 17.5833 10.9167 18.3333 10 18.3333C9.08337 18.3333 8.33337 17.5833 8.33337 16.6666ZM16.6667 14.4583V15.8333H3.33337V14.4583L5.00004 12.8916V8.59993C5.00004 6.1666 6.30004 4.24993 8.33337 3.6166V3.29993C8.33337 2.1166 9.57504 1.2166 10.825 1.83326C11.3667 2.09993 11.6667 2.6916 11.6667 3.29993V3.62493C13.7 4.24993 15 6.17493 15 8.60826V12.8999L16.6667 14.4583ZM15.8334 14.8083L14.1667 13.2416V8.68326C14.1667 6.62493 13.175 5.04993 11.5584 4.43326C10.5084 3.9916 9.35837 4.0166 8.35837 4.45826C6.79171 5.0916 5.83337 6.65826 5.83337 8.68326V13.2416L4.16671 14.8083V14.9999H15.8334V14.8083Z" fill="white"/>
</svg>
