<svg width="18" height="18" viewBox="0 0 18 18" fill="none" xmlns="http://www.w3.org/2000/svg">
<path d="M7.16669 7.1665L3.97502 14.0248L10.8334 10.8332L14.025 3.97484L7.16669 7.1665ZM9.90002 9.6415C9.72502 9.88317 9.47502 10.0415 9.18335 10.0915C9.12502 10.0998 9.05835 10.1082 9.00002 10.1082C8.76669 10.1082 8.55002 10.0415 8.35835 9.89984C8.11669 9.72484 7.95835 9.47484 7.90835 9.18317C7.85835 8.8915 7.92502 8.5915 8.10002 8.35817C8.27502 8.1165 8.52502 7.95817 8.81669 7.90817C9.10835 7.85817 9.40002 7.92484 9.64169 8.09984C9.88335 8.27484 10.0417 8.52484 10.0917 8.8165C10.1417 9.10817 10.075 9.39984 9.90002 9.6415ZM9.00002 1.49984C13.1334 1.49984 16.5 4.8665 16.5 8.99984C16.5 13.1332 13.1334 16.4998 9.00002 16.4998C4.86669 16.4998 1.50002 13.1332 1.50002 8.99984C1.50002 4.8665 4.86669 1.49984 9.00002 1.49984ZM9.00002 0.666504C4.40002 0.666504 0.666687 4.39984 0.666687 8.99984C0.666687 13.5998 4.40002 17.3332 9.00002 17.3332C13.6 17.3332 17.3334 13.5998 17.3334 8.99984C17.3334 4.39984 13.6 0.666504 9.00002 0.666504Z" fill="white"/>
</svg>
